<svg width="32" height="32" viewBox="0 0 32 32" fill="none" xmlns="http://www.w3.org/2000/svg">
<path fill-rule="evenodd" clip-rule="evenodd" d="M12.7671 29.9988C12.7142 29.9996 12.6613 30 12.6083 30C6.74949 30 2 25.0751 2 19C2 12.9249 6.74949 8 12.6083 8C17.469 8 21.5661 11.3898 22.821 16.0139C22.9626 16.0047 23.1054 16 23.2493 16C26.9776 16 30 19.134 30 23C30 26.866 26.9776 30 23.2493 30C23.1658 30 23.0827 29.9984 23 29.9953V30H12.7671V29.9988ZM23.3029 28C25.8359 27.9699 28 25.8105 28 23C28 20.1696 25.8053 18 23.2493 18C22.5272 18 21.8339 18.1732 21.2108 18.4855C21.1791 17.9037 21.0937 17.3367 20.9599 16.7899L20.9569 16.7911C20.0091 12.85 16.5839 10 12.6083 10C7.92179 10 4 13.9605 4 19C4 24.0395 7.92179 28 12.6083 28L12.652 27.9999L23.3029 28Z" fill="white"/>
</svg>
