<svg width="32" height="32" viewBox="0 0 32 32" fill="none" xmlns="http://www.w3.org/2000/svg">
<path fill-rule="evenodd" clip-rule="evenodd" d="M25 23.7623C27.8796 22.9627 30 20.2381 30 17C30 15.5559 29.5783 14.2139 28.8556 13.0993C29.5798 11.9759 30.0001 10.6381 30.0001 9.2021C30.0001 5.22449 26.7756 2 22.798 2C21.0525 2 19.452 2.62094 18.2055 3.65397C16.5808 2.60557 14.6627 2 12.6083 2C6.74949 2 2 6.92487 2 13C2 17.3628 4.44938 21.1323 8 22.9107V20.6003C5.61019 19.0152 4 16.2291 4 13C4 7.96046 7.92179 4 12.6083 4C16.5839 4 20.0091 6.85004 20.9569 10.7911L20.9599 10.7899C21.0937 11.3367 21.1791 11.9037 21.2108 12.4855C21.8339 12.1732 22.5272 12 23.2493 12C25.8053 12 28 14.1696 28 17C28 19.1518 26.7314 20.9218 25 21.6467V23.7623ZM19.8221 4.93473C21.2318 6.29111 22.2853 8.04004 22.821 10.0139C22.9626 10.0047 23.1054 10 23.2493 10C24.8393 10 26.301 10.57 27.4545 11.5237C27.8037 10.8249 28.0001 10.0364 28.0001 9.2021C28.0001 6.32906 25.671 4 22.798 4C21.6913 4 20.6653 4.34559 19.8221 4.93473ZM10.3609 20.9244C10.1533 21.4108 10.0009 21.9308 10.001 22.4091C10.0013 23.2877 10.6731 24 11.5015 24C12.33 24 13.0013 23.2877 13.001 22.4091C13.0009 21.9619 12.8327 21.4321 12.609 20.9252C12.1643 19.9175 11.5 19 11.5 19C11.5 19 10.8044 19.8856 10.3609 20.9244ZM15.001 22.4091C15.0009 21.9308 15.1533 21.4108 15.3609 20.9244C15.8044 19.8856 16.5 19 16.5 19C16.5 19 17.1643 19.9175 17.609 20.9252C17.8327 21.4321 18.0009 21.9619 18.001 22.4091C18.0013 23.2877 17.33 24 16.5015 24C15.6731 24 15.0013 23.2877 15.001 22.4091ZM13.2354 25.9244C13.0278 26.4108 12.8754 26.9308 12.8756 27.4091C12.8758 28.2877 13.5476 29 14.376 29C15.2045 29 15.8758 28.2877 15.8756 27.4091C15.8754 26.9619 15.7072 26.4321 15.4835 25.9252C15.0388 24.9175 14.3745 24 14.3745 24C14.3745 24 13.6789 24.8856 13.2354 25.9244ZM20.001 22.4091C20.0009 21.9308 20.1533 21.4108 20.3609 20.9244C20.8044 19.8856 21.5 19 21.5 19C21.5 19 22.1643 19.9175 22.609 20.9252C22.8327 21.4321 23.0009 21.9619 23.001 22.4091C23.0013 23.2877 22.33 24 21.5015 24C20.6731 24 20.0013 23.2877 20.001 22.4091ZM18.2503 25.9244C18.0427 26.4108 17.8903 26.9308 17.8905 27.4091C17.8907 28.2877 18.5625 29 19.3909 29C20.2194 29 20.8907 28.2877 20.8904 27.4091C20.8903 26.9619 20.7221 26.4321 20.4984 25.9252C20.0537 24.9175 19.3894 24 19.3894 24C19.3894 24 18.6938 24.8856 18.2503 25.9244Z" fill="white"/>
</svg>
