<svg width="32" height="32" viewBox="0 0 32 32" fill="none" xmlns="http://www.w3.org/2000/svg">
<path fill-rule="evenodd" clip-rule="evenodd" d="M12.4892 9.75824C12.7674 9.72918 13.0496 9.71429 13.3351 9.71429C17.1542 9.71429 20.3734 12.3777 21.3594 16.0109C21.4383 16.0058 21.5177 16.0024 21.5975 16.0009C21.5651 16.0004 21.5326 16.0001 21.5 16.0001L21.4736 16.0001L21.4736 16H22.6785H22.7259V15.9996C24.2228 15.9743 25.4285 14.753 25.4285 13.25C25.4285 11.7312 24.1973 10.5 22.6785 10.5C22.1686 10.5 21.6911 10.6388 21.2817 10.8807C21.2805 10.4417 21.2138 10.0181 21.0909 9.6191C20.4787 7.84544 18.7945 6.57143 16.8128 6.57143C14.7797 6.57143 13.0597 7.91245 12.4892 9.75824ZM24.7816 17.026C26.1248 18.0239 27 19.656 27 21.5C27 24.5375 24.6253 27 21.6959 27C21.6303 27 21.565 26.9987 21.5 26.9963V27H13.4599V26.9991C13.4184 26.9997 13.3768 27 13.3351 27C8.73174 27 5 23.1305 5 18.3571C5 14.5027 7.4333 11.2375 10.7939 10.1233C11.2597 7.21891 13.7771 5 16.8128 5C19.4174 5 21.6404 6.63337 22.5135 8.93167C22.5682 8.92961 22.6233 8.92857 22.6785 8.92857C25.0652 8.92857 27 10.8633 27 13.25C27 14.8732 26.105 16.2874 24.7816 17.026ZM21.5 25.4286H13.4599H13.3694V25.4285L13.3351 25.4286C9.65284 25.4286 6.57143 22.3168 6.57143 18.3571C6.57143 14.3975 9.65284 11.2857 13.3351 11.2857C16.4587 11.2857 19.15 13.525 19.8947 16.6216L19.897 16.6206C20.0022 17.0503 20.0693 17.4957 20.0942 17.9529C20.5838 17.7075 21.1285 17.5714 21.6959 17.5714C23.7042 17.5714 25.4286 19.2761 25.4286 21.5C25.4286 23.7083 23.7282 25.4046 21.738 25.4283V25.4286H21.5Z" fill="white"/>
</svg>
