<svg width="30" height="30" viewBox="0 0 47 47" fill="none" xmlns="http://www.w3.org/2000/svg">
<path d="M17.962 32.9353L15.1909 35.7043L23.5001 44.0135L31.8093 35.7043L29.0383 32.9353L23.5001 38.4754L17.962 32.9353ZM29.0383 14.0647L31.8093 11.2957L23.5001 2.98646L15.1909 11.2957L17.962 14.0647L23.5001 8.52658L29.0383 14.0647Z" fill="white"/>
<path fill-rule="evenodd" clip-rule="evenodd" d="M23.5 17.625C25.0581 17.625 26.5525 18.244 27.6543 19.3457C28.756 20.4475 29.375 21.9419 29.375 23.5C29.375 25.0581 28.756 26.5525 27.6543 27.6543C26.5525 28.756 25.0581 29.375 23.5 29.375C21.9419 29.375 20.4475 28.756 19.3457 27.6543C18.244 26.5525 17.625 25.0581 17.625 23.5C17.625 21.9419 18.244 20.4475 19.3457 19.3457C20.4475 18.244 21.9419 17.625 23.5 17.625ZM23.5 21.5417C24.0194 21.5417 24.5175 21.748 24.8848 22.1152C25.252 22.4825 25.4583 22.9806 25.4583 23.5C25.4583 24.0194 25.252 24.5175 24.8848 24.8848C24.5175 25.252 24.0194 25.4583 23.5 25.4583C22.9806 25.4583 22.4825 25.252 22.1152 24.8848C21.748 24.5175 21.5417 24.0194 21.5417 23.5C21.5417 22.9806 21.748 22.4825 22.1152 22.1152C22.4825 21.748 22.9806 21.5417 23.5 21.5417Z" fill="white"/>
</svg>
