<svg width="32" height="32" viewBox="0 0 32 32" fill="none" xmlns="http://www.w3.org/2000/svg">
<path fill-rule="evenodd" clip-rule="evenodd" d="M27.591 19.1057C28.0513 17.388 28.1145 15.6574 27.837 14.0114C27.4654 15.2034 26.8022 16.2331 25.947 17.0413L25.9461 17.0499C25.3061 17.6802 24.5516 18.1842 23.7221 18.5341C22.7901 18.9273 21.7849 19.1169 20.7738 19.0903C19.7627 19.0638 18.7688 18.8216 17.8588 18.3801C16.9488 17.9386 16.1435 17.3078 15.4968 16.5301C14.8501 15.7523 14.377 14.8454 14.109 13.8701C13.8409 12.8947 13.7843 11.8734 13.9427 10.8744C14.1011 9.8754 14.471 8.92174 15.0277 8.07718C15.5469 7.28944 16.2173 6.61355 16.9995 6.08838C17.9968 5.39143 19.1693 4.95214 20.4056 4.83674C19.9856 4.6716 19.552 4.52838 19.1058 4.40881C12.7042 2.69351 6.12412 6.4925 4.40882 12.8941C2.69352 19.2957 6.49251 25.8757 12.8941 27.591C19.2957 29.3063 25.8757 25.5073 27.591 19.1057ZM25.0461 20.2663C23.0255 24.5635 18.1597 26.9314 13.4117 25.6592C8.07708 24.2298 4.91125 18.7464 6.34067 13.4117C7.32782 9.72765 10.2484 7.07793 13.7182 6.26172C13.5538 6.46956 13.3982 6.68476 13.2519 6.90679C12.5287 8.00414 12.048 9.24325 11.8422 10.5413C11.6363 11.8393 11.71 13.1663 12.0582 14.4336C12.4064 15.7009 13.0212 16.8792 13.8615 17.8898C14.7017 18.9003 15.748 19.7199 16.9304 20.2935C18.1129 20.8672 19.4041 21.1819 20.7179 21.2164C22.0317 21.2509 23.3378 21.0045 24.5487 20.4937C24.7169 20.4227 24.8828 20.3469 25.0461 20.2663ZM25.8603 8.6141L25.3359 7L24.8114 8.6141L23.1143 8.6141L24.4873 9.61167L23.9629 11.2258L25.3359 10.2282L26.7089 11.2258L26.1845 9.61167L27.5575 8.6141L25.8603 8.6141ZM19.3359 7L19.8603 8.6141L21.5575 8.6141L20.1845 9.61167L20.7089 11.2258L19.3359 10.2282L17.9629 11.2258L18.4873 9.61167L17.1143 8.6141L18.8114 8.6141L19.3359 7ZM22.8603 12.6141L22.3359 11L21.8114 12.6141L20.1143 12.6141L21.4873 13.6117L20.9629 15.2258L22.3359 14.2282L23.7089 15.2258L23.1845 13.6117L24.5575 12.6141L22.8603 12.6141Z" fill="white"/>
</svg>
