<svg width="32" height="32" viewBox="0 0 32 32" fill="none" xmlns="http://www.w3.org/2000/svg">
<path fill-rule="evenodd" clip-rule="evenodd" d="M15 5V2H17V5H15ZM22.8619 21.8239C23.573 22.6875 24 23.7938 24 24.9999C24 27.7613 21.7614 29.9999 19 29.9999L18.9634 29.9998H11.5388V29.9997L11.5 29.9998C7.35787 29.9998 4 26.6419 4 22.4998C4 20.0402 5.18397 17.8571 7.01308 16.4894C7.0044 16.3274 7 16.1642 7 16C7 11.0294 11.0294 7 16 7C20.9706 7 25 11.0294 25 16C25 18.221 24.1955 20.2542 22.8619 21.8239ZM21.3082 20.5634C20.6177 20.2034 19.8326 19.9999 19 19.9999C18.1545 19.9999 17.358 20.2097 16.6598 20.5802C16.8825 21.1779 17.0042 21.8247 17.0042 22.5C17.0042 22.5891 17.0021 22.6776 16.9979 22.7657C17.5289 22.2895 18.2306 21.9999 19 21.9999C20.6569 21.9999 22 23.343 22 24.9999C22 26.6567 20.6569 27.9999 19 27.9999V27.9998H18.9716L18.9332 27.9992H11.5833C11.5556 27.9996 11.5278 27.9998 11.5 27.9998C8.46244 27.9998 6 25.5373 6 22.4998C6 19.4622 8.46244 16.9998 11.5 16.9998C13.8631 16.9998 15.878 18.49 16.6564 20.5819C17.2385 20.2725 17.889 20.0748 18.5794 20.0173C17.5548 17.0951 14.7721 14.9998 11.5 14.9998C10.6323 14.9998 9.79904 15.1471 9.02384 15.4181C9.31956 11.8244 12.3299 9 16 9C19.866 9 23 12.134 23 16C23 17.7434 22.3626 19.338 21.3082 20.5634ZM30 15H27V17H30V15ZM25.0263 9.63397L27.6243 8.13397L28.6243 9.86603L26.0263 11.366L25.0263 9.63397ZM22.134 3.37573L20.634 5.97381L22.3661 6.97381L23.8661 4.37573L22.134 3.37573ZM9.63397 6.97381L8.13397 4.37573L9.86603 3.37573L11.366 5.97381L9.63397 6.97381ZM3.37567 9.86603L5.97375 11.366L6.97375 9.63397L4.37567 8.13397L3.37567 9.86603ZM2 15H5V17H2V15ZM25.0263 22.366L27.6244 23.866L28.6244 22.134L26.0263 20.634L25.0263 22.366Z" fill="white"/>
</svg>
