<svg width="32" height="32" viewBox="0 0 32 32" fill="none" xmlns="http://www.w3.org/2000/svg">
<path fill-rule="evenodd" clip-rule="evenodd" d="M24.1091 13.312C25.6078 13.2633 27.031 12.6543 28.0936 11.6095C28.6413 11.0636 29.0811 10.4121 29.3787 9.68862C29.7813 10.8494 29.9998 12.095 29.9998 13.3911C29.9998 18.4915 26.6156 22.809 21.9501 24.2606C21.9864 24.5035 22.0052 24.7522 22.0052 25.0053C22.0052 27.7681 19.7654 30.0079 17.0026 30.0079C16.9091 30.0079 16.8162 30.0053 16.724 30.0002H9.50485V29.9988L9.49856 29.9988C5.35425 29.9988 1.99463 26.671 1.99463 22.5659C1.99463 19.257 4.17748 16.4531 7.19463 15.49C7.06671 14.8097 6.99982 14.1081 6.99982 13.3911C6.99982 7.09996 12.1485 2 18.4998 2C19.3971 2 20.2703 2.10178 21.1084 2.29432C20.407 2.65945 19.7885 3.15913 19.2883 3.75857C18.3465 4.92001 17.8847 6.39337 17.998 7.88067C18.1132 9.39175 18.8133 10.8004 19.952 11.8124C21.0907 12.8245 22.5801 13.3618 24.1091 13.312ZM9.16461 15.1403C9.27532 15.1355 9.38665 15.1331 9.49856 15.1331C12.741 15.1331 15.5031 17.1701 16.5517 20.0227C16.7002 20.0094 16.8506 20.0026 17.0026 20.0026C18.8024 20.0026 20.3803 20.9532 21.2616 22.3797C24.9137 21.2852 27.6239 18.0768 27.9638 14.2139C26.8233 14.8826 25.5221 15.2641 24.1754 15.3079C22.1268 15.3745 20.1313 14.6547 18.6057 13.2987C17.08 11.9427 16.1421 10.0554 15.9878 8.03086C15.886 6.69604 16.1301 5.3696 16.6816 4.17153C12.2932 5.0113 8.99982 8.8333 8.99982 13.3911C8.99982 13.9885 9.0564 14.5732 9.16461 15.1403ZM9.52478 27.9987L9.49856 27.9988C6.44083 27.9988 3.99463 25.5485 3.99463 22.5659C3.99463 19.5833 6.44083 17.1331 9.49856 17.1331C11.8724 17.1331 13.8776 18.6098 14.6559 20.6659L14.661 20.6632C14.8839 21.2556 15.0057 21.8968 15.0057 22.5661C15.0057 22.6331 15.0044 22.6998 15.002 22.7661C15.5331 22.2913 16.2341 22.0026 17.0026 22.0026C18.6609 22.0026 20.0052 23.347 20.0052 25.0053C20.0052 26.6636 18.6609 28.0079 17.0026 28.0079H16.9998V28.0002H16.7869L16.7661 27.9987H12.994L12.9952 28.0002H12.9878L12.9867 27.9987H9.52478Z" fill="white"/>
</svg>
