<svg width="32" height="32" viewBox="0 0 32 32" fill="none" xmlns="http://www.w3.org/2000/svg">
<path fill-rule="evenodd" clip-rule="evenodd" d="M30 17C30 20.6028 27.375 23.57 24 23.9572V21.937C26.2205 21.5615 28 19.5486 28 17C28 14.1696 25.8053 12 23.2493 12C22.5272 12 21.8339 12.1732 21.2108 12.4855C21.1791 11.9037 21.0937 11.3367 20.9599 10.7899L20.9569 10.7911C20.0091 6.85004 16.5839 4 12.6083 4C7.92179 4 4 7.96046 4 13C4 17.0657 6.55261 20.4291 10 21.5772V23.665C5.40237 22.4598 2 18.1419 2 13C2 6.92487 6.74949 2 12.6083 2C14.6627 2 16.5808 2.60557 18.2055 3.65397C19.452 2.62094 21.0525 2 22.798 2C26.7756 2 30.0001 5.22449 30.0001 9.2021C30.0001 10.6381 29.5798 11.9759 28.8556 13.0993C29.5783 14.2139 30 15.5559 30 17ZM27.4545 11.5237C27.8037 10.8249 28.0001 10.0364 28.0001 9.2021C28.0001 6.32906 25.671 4 22.798 4C21.6913 4 20.6653 4.34559 19.8221 4.93473C21.2318 6.29111 22.2853 8.04004 22.821 10.0139C22.9626 10.0047 23.1054 10 23.2493 10C24.8393 10 26.301 10.57 27.4545 11.5237ZM14.0021 27.456C14.0022 27.7921 13.7442 28.0021 13.5021 28.0021C13.2599 28.0021 13.0018 27.7921 13.0017 27.456C13.0015 27.0277 13.1753 26.4437 13.4744 25.7938C13.5746 26.0045 13.6656 26.2136 13.7435 26.4168C13.9389 26.9263 14.0021 27.272 14.0021 27.456ZM13.5002 22C13.5002 22 12.9029 22.7302 12.2923 23.7572C11.654 24.8309 11.0013 26.229 11.0017 27.456C11.0021 28.8622 12.1218 30.0021 13.5027 30.0021C14.8835 30.0021 16.0025 28.8622 16.0021 27.456C16.0018 26.3379 15.318 24.8977 14.6655 23.7778C14.0699 22.7554 13.5002 22 13.5002 22ZM19.5021 25.0021C19.7442 25.0021 20.0022 24.7921 20.0021 24.456C20.0021 24.272 19.9389 23.9263 19.7435 23.4168C19.6656 23.2136 19.5746 23.0045 19.4744 22.7938C19.1753 23.4437 19.0015 24.0277 19.0017 24.456C19.0018 24.7921 19.2599 25.0021 19.5021 25.0021ZM18.2923 20.7572C18.9029 19.7302 19.5002 19 19.5002 19C19.5002 19 20.0699 19.7554 20.6655 20.7778C21.318 21.8977 22.0018 23.3379 22.0021 24.456C22.0025 25.8622 20.8835 27.0021 19.5027 27.0021C18.1218 27.0021 17.0021 25.8622 17.0017 24.456C17.0013 23.229 17.654 21.8309 18.2923 20.7572Z" fill="white"/>
</svg>
