<svg width="32" height="32" viewBox="0 0 32 32" fill="none" xmlns="http://www.w3.org/2000/svg">
<path fill-rule="evenodd" clip-rule="evenodd" d="M30 17C30 20.6028 27.375 23.57 24 23.9572V21.937C26.2205 21.5615 28 19.5486 28 17C28 14.1696 25.8053 12 23.2493 12C22.5272 12 21.8339 12.1732 21.2108 12.4855C21.1791 11.9037 21.0937 11.3367 20.9599 10.7899L20.9569 10.7911C20.0091 6.85004 16.5839 4 12.6083 4C7.92179 4 4 7.96046 4 13C4 17.0657 6.55261 20.4291 10 21.5772V23.665C5.40237 22.4598 2 18.1419 2 13C2 6.92487 6.74949 2 12.6083 2C15.4013 2 17.9422 3.11925 19.8366 4.9488C20.9587 2.72452 23.5197 1.51433 26.0199 2.18471C26.3224 2.26584 26.612 2.37127 26.8871 2.49833C25.8142 2.6724 24.8941 3.46383 24.6104 4.58462C24.4703 5.13844 24.505 5.69555 24.6798 6.19761L24.6881 6.22877C24.7697 6.52588 24.9137 6.80214 25.1106 7.03907C25.2227 7.17396 25.3504 7.29434 25.4908 7.39783C25.813 7.67873 26.2044 7.89018 26.647 8.00239C28.0002 8.34539 29.3727 7.64442 29.9137 6.4062C30.0538 7.16703 30.0311 7.9702 29.8176 8.76719C29.4797 10.0293 28.7198 11.0656 27.7306 11.7647C29.1228 13.047 30 14.9172 30 17ZM25.8297 10.5296C26.2261 10.378 26.5919 10.1526 26.906 9.86539C26.8252 9.86793 26.7442 9.86815 26.6632 9.86602C26.0642 9.85027 25.4755 9.70672 24.9363 9.44498C24.3972 9.18323 23.9202 8.80932 23.5371 8.34824C23.154 7.88717 22.8737 7.34956 22.7149 6.77136C22.5561 6.19316 22.5225 5.5877 22.6164 4.99547C22.6368 4.86651 22.6632 4.73883 22.6954 4.61281C22.0689 5.05176 21.5872 5.70543 21.3737 6.50308C21.3539 6.5769 21.3367 6.6508 21.3221 6.72469C21.9865 7.71475 22.4979 8.8234 22.821 10.0139C22.9626 10.0047 23.1054 10 23.2493 10C24.1632 10 25.0347 10.1883 25.8297 10.5296ZM14.0021 27.456C14.0022 27.792 13.7442 28.0021 13.5021 28.0021C13.2599 28.0021 13.0018 27.792 13.0017 27.456C13.0015 27.0277 13.1753 26.4437 13.4744 25.7937C13.5746 26.0045 13.6656 26.2136 13.7435 26.4167C13.9389 26.9262 14.0021 27.272 14.0021 27.456ZM13.5002 22C13.5002 22 12.9029 22.7302 12.2923 23.7572C11.654 24.8309 11.0013 26.229 11.0017 27.456C11.0021 28.8622 12.1218 30.0021 13.5027 30.0021C14.8835 30.0021 16.0025 28.8622 16.0021 27.456C16.0018 26.3379 15.318 24.8977 14.6655 23.7777C14.0699 22.7554 13.5002 22 13.5002 22ZM19.5021 25.0021C19.7442 25.0021 20.0022 24.792 20.0021 24.456C20.0021 24.272 19.9389 23.9262 19.7435 23.4167C19.6656 23.2136 19.5746 23.0045 19.4744 22.7937C19.1753 23.4437 19.0015 24.0277 19.0017 24.456C19.0018 24.792 19.2599 25.0021 19.5021 25.0021ZM18.2923 20.7572C18.9029 19.7302 19.5002 19 19.5002 19C19.5002 19 20.0699 19.7554 20.6655 20.7777C21.318 21.8977 22.0018 23.3379 22.0021 24.456C22.0025 25.8622 20.8835 27.0021 19.5027 27.0021C18.1218 27.0021 17.0021 25.8622 17.0017 24.456C17.0013 23.229 17.654 21.8309 18.2923 20.7572Z" fill="white"/>
</svg>
