<svg width="32" height="32" viewBox="0 0 32 32" fill="none" xmlns="http://www.w3.org/2000/svg">
<path d="M17.1483 19.8763V14.2272C17.1483 13.9138 17.0257 13.6132 16.8074 13.3916C16.5892 13.1699 16.2931 13.0454 15.9845 13.0454C15.6758 13.0454 15.3798 13.1699 15.1615 13.3916C14.9433 13.6132 14.8206 13.9138 14.8206 14.2272V19.8763C14.4688 20.0826 14.1763 20.3787 13.9721 20.7353C13.768 21.0919 13.6593 21.4965 13.6568 21.909C13.6568 22.5359 13.902 23.1371 14.3386 23.5804C14.7751 24.0236 15.3671 24.2727 15.9845 24.2727C16.6018 24.2727 17.1939 24.0236 17.6304 23.5804C18.0669 23.1371 18.3121 22.5359 18.3121 21.909C18.3097 21.4965 18.201 21.0919 17.9968 20.7353C17.7926 20.3787 17.5001 20.0826 17.1483 19.8763ZM21.2217 17.1818V8.31817C21.2217 6.9077 20.67 5.555 19.6878 4.55765C18.7056 3.56031 17.3735 3 15.9845 3C14.5955 3 13.2633 3.56031 12.2812 4.55765C11.299 5.555 10.7472 6.9077 10.7472 8.31817V17.1818C9.94281 18.1074 9.39032 19.2302 9.14439 20.4391C8.89845 21.6481 8.96759 22.9013 9.34496 24.0748C9.72234 25.2483 10.3949 26.3014 11.296 27.13C12.1972 27.9585 13.2958 28.5339 14.4831 28.799C14.9763 28.9132 15.479 28.9804 15.9845 28.9999C17.3353 29.0063 18.6589 28.6147 19.7949 27.8726C20.9309 27.1305 21.8306 26.0698 22.3849 24.819C22.9393 23.5681 23.1244 22.1809 22.9179 20.8253C22.7115 19.4698 22.1223 18.2041 21.2217 17.1818ZM18.8941 25.5372C17.9681 26.3709 16.7538 26.797 15.5185 26.7216C14.2831 26.6463 13.1278 26.0757 12.3068 25.1354C11.4857 24.1951 11.0661 22.9621 11.1403 21.7076C11.2145 20.4532 11.7764 19.2801 12.7025 18.4463C12.8124 18.3369 12.8999 18.2063 12.9598 18.0623C13.0198 17.9183 13.051 17.7636 13.0516 17.6072V8.31817C13.0516 7.53457 13.3582 6.78308 13.9038 6.22899C14.4495 5.67491 15.1895 5.36363 15.9612 5.36363C16.7329 5.36363 17.4729 5.67491 18.0186 6.22899C18.5642 6.78308 18.8708 7.53457 18.8708 8.31817V17.7018C18.8714 17.8581 18.9026 18.0128 18.9626 18.1569C19.0225 18.3009 19.11 18.4314 19.2199 18.5409C19.6957 19.0075 20.068 19.5718 20.3121 20.196C20.5562 20.8203 20.6666 21.4902 20.6357 22.1611C20.6049 22.8321 20.4336 23.4886 20.1333 24.0871C19.833 24.6855 19.4105 25.2121 18.8941 25.6318V25.5372Z" fill="#DFA1A1"/>
</svg>
