<svg width="32" height="32" viewBox="0 0 32 32" fill="none" xmlns="http://www.w3.org/2000/svg">
<path fill-rule="evenodd" clip-rule="evenodd" d="M14.0001 10.9944L14.0001 10.9885L8.33939 10.9884L13.7693 9.02633L13.7688 9.02471C13.8727 8.9985 13.9804 8.98917 14.0875 8.99715C14.1016 8.99821 14.1157 8.99956 14.1298 9.00122L14.13 9.00125C14.2771 9.01857 14.4184 9.06835 14.5439 9.14699L14.5439 9.147C14.6694 9.22565 14.7759 9.33119 14.8556 9.456L14.8557 9.4562C14.9354 9.58102 14.9864 9.72199 15.0049 9.86892L15.005 9.8692C15.0235 10.0162 15.0092 10.1655 14.963 10.3062L14.963 10.3063C14.9168 10.4471 14.8398 10.5759 14.7378 10.6833L14.7377 10.6834C14.6356 10.7908 14.511 10.8742 14.3728 10.9275L14.3726 10.9276C14.3596 10.9326 14.3465 10.9373 14.3333 10.9418C14.226 10.9781 14.1133 10.9958 14.0001 10.9944ZM4 10.4296V12.9885L13.9796 12.9886C14.3586 12.9929 14.7355 12.9251 15.0903 12.7883L15.0905 12.7882C15.3605 12.684 15.6132 12.5415 15.8412 12.3657C15.9625 12.272 16.0768 12.169 16.183 12.0573L16.1831 12.0572C16.4886 11.7355 16.7189 11.3501 16.8573 10.9285L16.8573 10.9284C16.9956 10.5069 17.0386 10.0599 16.9831 9.61975L16.9831 9.61947C16.9275 9.1793 16.7749 8.75698 16.5362 8.38303L16.5361 8.38283C16.2974 8.00884 15.9785 7.6926 15.6026 7.45699L15.6026 7.45698C15.472 7.3751 15.3356 7.30367 15.1947 7.24314C14.9302 7.12949 14.65 7.05427 14.3625 7.02047L14.3623 7.02045C13.934 6.97012 13.5001 7.01297 13.0901 7.14589L13.0898 7.14504L13.0591 7.15612L13.0555 7.15734L13.0551 7.15748L13.0551 7.15757L4 10.4296ZM4 18.998V21.0525L17.2058 25.7506L17.2057 25.751C17.6836 25.9417 18.1977 26.0246 18.7113 25.9938C18.9088 25.982 19.1043 25.9534 19.2959 25.9088C19.6026 25.8373 19.8991 25.7245 20.1771 25.5728C20.6288 25.3264 21.0206 24.9833 21.3246 24.568C21.6286 24.1527 21.8372 23.6755 21.9357 23.1703C22.0342 22.6652 22.0201 22.1445 21.8943 21.6454C21.7686 21.1463 21.5344 20.6811 21.2083 20.283C21.0076 20.0379 20.7752 19.8219 20.5178 19.6404C20.357 19.527 20.1866 19.4271 20.008 19.3419C19.5443 19.1207 19.0376 19.0043 18.5239 19.0011V18.9981L4 18.998ZM18.5103 20.9983L9.8151 20.9982L17.9842 23.9045L17.9835 23.9065C18.1776 23.9782 18.3847 24.0089 18.5916 23.9964C18.8115 23.9833 19.0258 23.9217 19.2193 23.8162C19.4127 23.7106 19.5805 23.5637 19.7106 23.3859C19.8408 23.2081 19.9302 23.0037 19.9723 22.7874C20.0145 22.571 20.0085 22.3481 19.9546 22.1344C19.9008 21.9206 19.8005 21.7214 19.6608 21.5509C19.5212 21.3804 19.3457 21.2428 19.1468 21.1479C18.9483 21.0532 18.7312 21.0034 18.5112 21.002L18.5103 21.002L18.5103 21.0016L18.5103 20.9983ZM23.018 11.2481L23.0172 11.2486L22.0336 9.50716L22.0325 9.50515L22.0345 9.50404C22.567 9.2035 23.1613 9.02907 23.7718 8.99417C23.8603 8.98911 23.9489 8.987 24.0373 8.98783C24.559 8.99269 25.0757 9.09965 25.5579 9.3036C26.1218 9.54211 26.6234 9.90691 27.0241 10.3699C27.4248 10.8329 27.7139 11.3817 27.8692 11.974C28.0245 12.5664 28.0417 13.1865 27.9197 13.7866C27.7976 14.3867 27.5395 14.9508 27.1651 15.4353C26.8451 15.8497 26.4474 16.1964 25.9952 16.4568C25.9185 16.5009 25.8403 16.5425 25.7606 16.5816C25.2108 16.8512 24.6066 16.9909 23.9944 16.99V16.9897H4V14.9897H23.9972L23.9972 14.9876C24.303 14.988 24.6049 14.9182 24.8795 14.7836C25.1541 14.6489 25.3941 14.453 25.5811 14.2109C25.7681 13.9689 25.897 13.6871 25.958 13.3874C26.019 13.0876 26.0104 12.7778 25.9328 12.4819C25.8552 12.186 25.7108 11.9119 25.5106 11.6806C25.3105 11.4493 25.0599 11.2671 24.7782 11.1479C24.4966 11.0288 24.1913 10.9759 23.886 10.9934C23.581 11.0108 23.2841 11.098 23.018 11.2481Z" fill="white"/>
</svg>
