<svg width="32" height="32" viewBox="0 0 32 32" fill="none" xmlns="http://www.w3.org/2000/svg">
<path fill-rule="evenodd" clip-rule="evenodd" d="M25 23.7623C27.8796 22.9627 30 20.2381 30 17C30 14.9172 29.1228 13.047 27.7306 11.7647C28.7198 11.0656 29.4797 10.0293 29.8176 8.76719C30.0311 7.9702 30.0538 7.16703 29.9137 6.4062C29.3727 7.64442 28.0002 8.34539 26.647 8.00239C26.2044 7.89018 25.813 7.67873 25.4908 7.39783C25.3504 7.29434 25.2227 7.17396 25.1106 7.03907C24.9137 6.80214 24.7697 6.52588 24.6881 6.22877L24.6798 6.19761C24.505 5.69555 24.4703 5.13844 24.6104 4.58462C24.8941 3.46383 25.8142 2.6724 26.8871 2.49833C26.612 2.37127 26.3224 2.26584 26.0199 2.18471C23.5197 1.51433 20.9587 2.72452 19.8366 4.9488C17.9422 3.11925 15.4013 2 12.6083 2C6.74949 2 2 6.92487 2 13C2 17.3628 4.44938 21.1323 8 22.9107V20.6003C5.61019 19.0152 4 16.2291 4 13C4 7.96046 7.92179 4 12.6083 4C16.5839 4 20.0091 6.85004 20.9569 10.7911L20.9599 10.7899C21.0937 11.3367 21.1791 11.9037 21.2108 12.4855C21.8339 12.1732 22.5272 12 23.2493 12C25.8053 12 28 14.1696 28 17C28 19.1518 26.7314 20.9218 25 21.6467V23.7623ZM21.3221 6.72469C21.9865 7.71475 22.4979 8.8234 22.821 10.0139C22.9626 10.0047 23.1054 10 23.2493 10C24.1632 10 25.0347 10.1883 25.8297 10.5296C26.2261 10.378 26.5919 10.1526 26.906 9.86539C26.8252 9.86793 26.7442 9.86815 26.6632 9.86602C26.0642 9.85027 25.4755 9.70672 24.9363 9.44498C24.3972 9.18323 23.9202 8.80932 23.5371 8.34824C23.154 7.88717 22.8737 7.34956 22.7149 6.77136C22.5561 6.19316 22.5225 5.5877 22.6164 4.99547C22.6368 4.86651 22.6632 4.73883 22.6954 4.61281C22.0689 5.05176 21.5872 5.70543 21.3737 6.50308C21.3539 6.5769 21.3367 6.6508 21.3221 6.72469ZM10.3609 20.9244C10.1533 21.4108 10.0009 21.9308 10.001 22.4091C10.0013 23.2877 10.6731 24 11.5015 24C12.33 24 13.0013 23.2877 13.001 22.4091C13.0009 21.9619 12.8327 21.4321 12.609 20.9252C12.1643 19.9175 11.5 19 11.5 19C11.5 19 10.8044 19.8856 10.3609 20.9244ZM15.001 22.4091C15.0009 21.9308 15.1533 21.4108 15.3609 20.9244C15.8044 19.8856 16.5 19 16.5 19C16.5 19 17.1643 19.9175 17.609 20.9252C17.8327 21.4321 18.0009 21.9619 18.001 22.4091C18.0013 23.2877 17.33 24 16.5015 24C15.6731 24 15.0013 23.2877 15.001 22.4091ZM13.2354 25.9244C13.0278 26.4108 12.8754 26.9308 12.8756 27.4091C12.8758 28.2877 13.5476 29 14.376 29C15.2045 29 15.8758 28.2877 15.8756 27.4091C15.8754 26.9619 15.7072 26.4321 15.4835 25.9252C15.0388 24.9175 14.3745 24 14.3745 24C14.3745 24 13.6789 24.8856 13.2354 25.9244ZM20.001 22.4091C20.0009 21.9308 20.1533 21.4108 20.3609 20.9244C20.8044 19.8856 21.5 19 21.5 19C21.5 19 22.1643 19.9175 22.609 20.9252C22.8327 21.4321 23.0009 21.9619 23.001 22.4091C23.0013 23.2877 22.33 24 21.5015 24C20.6731 24 20.0013 23.2877 20.001 22.4091ZM18.2503 25.9244C18.0427 26.4108 17.8903 26.9308 17.8905 27.4091C17.8907 28.2877 18.5625 29 19.3909 29C20.2194 29 20.8907 28.2877 20.8904 27.4091C20.8903 26.9619 20.7221 26.4321 20.4984 25.9252C20.0537 24.9175 19.3894 24 19.3894 24C19.3894 24 18.6938 24.8856 18.2503 25.9244Z" fill="white"/>
</svg>
